<?xml version="1.0" encoding="UTF-8" standalone="no"?>
<!-- Created with Inkscape (http://www.inkscape.org/) -->

<svg
   version="1.1"
   id="svg1"
   width="713.36694"
   height="685.70392"
   viewBox="0 0 713.36694 685.70392"
   sodipodi:docname="logogeo.svg"
   inkscape:version="1.4.3 (0d15f75, 2025-12-25)"
   xmlns:inkscape="http://www.inkscape.org/namespaces/inkscape"
   xmlns:sodipodi="http://sodipodi.sourceforge.net/DTD/sodipodi-0.dtd"
   xmlns="http://www.w3.org/2000/svg"
   xmlns:svg="http://www.w3.org/2000/svg">
  <defs
     id="defs1" />
  <sodipodi:namedview
     id="namedview1"
     pagecolor="#505050"
     bordercolor="#eeeeee"
     borderopacity="1"
     inkscape:showpageshadow="0"
     inkscape:pageopacity="0"
     inkscape:pagecheckerboard="0"
     inkscape:deskcolor="#505050"
     inkscape:zoom="1.1396484"
     inkscape:cx="354.05656"
     inkscape:cy="388.27763"
     inkscape:window-width="3440"
     inkscape:window-height="1369"
     inkscape:window-x="-8"
     inkscape:window-y="-8"
     inkscape:window-maximized="1"
     inkscape:current-layer="g1" />
  <g
     inkscape:groupmode="layer"
     inkscape:label="Image"
     id="g1"
     transform="translate(-157.84584,-123.41047)">
    <path
       style="fill:#000000"
       d="M 658.26667,808.14315 C 657.7136,807.78942 656.49995,802.55 655.56968,796.5 c -2.47793,-16.11514 -2.12958,-15.20222 -6.31923,-16.56042 -2.06275,-0.66871 -6.83583,-2.75844 -10.60686,-4.64386 -8.08682,-4.04321 -6.92603,-4.33717 -17.77151,4.50041 l -8.62791,7.03057 -3.04586,-1.8523 c -2.63108,-1.60005 -9.54405,-7.44493 -25.53177,-21.58699 -2.10841,-1.86501 -4.75107,-4.03363 -5.87258,-4.81917 -1.98038,-1.38712 -1.80611,-1.74997 6.05017,-12.5972 l 8.08928,-11.16894 -2.47281,-4.87985 c -1.36004,-2.68392 -3.43695,-7.47689 -4.61534,-10.65105 -2.53149,-6.8189 -3.02882,-7.2359 -8.65371,-7.25589 -2.36964,-0.008 -7.54464,-0.48177 -11.5,-1.05189 -12.5431,-1.80794 -11.33472,-0.57527 -11.45927,-11.68958 -0.0602,-5.37561 -0.40916,-15.0161 -0.77537,-21.4233 -0.61707,-10.79624 -0.53001,-11.69102 1.18863,-12.21693 1.01995,-0.31211 7.67656,-1.71695 14.79246,-3.12187 7.1159,-1.40493 13.01739,-2.65731 13.11441,-2.78308 0.097,-0.12576 1.13888,-2.83697 2.31526,-6.02489 1.17637,-3.18793 3.01313,-7.50995 4.08168,-9.60448 1.80159,-3.53142 1.82648,-3.98237 0.34247,-6.20376 -2.7794,-4.16045 -9.70265,-13.29212 -12.04182,-15.88299 -3.36646,-3.7287 -3.37123,-3.7211 12.5,-19.89263 l 14.75,-15.02908 8,5.73487 c 4.4,3.15417 9.64024,6.69067 11.64497,7.85889 l 3.64498,2.12403 5.35502,-2.59017 c 2.94527,-1.42458 8.05503,-3.33769 11.35503,-4.25134 l 6,-1.66119 1.81728,-12.88552 c 0.9995,-7.08704 2.3495,-13.21866 3,-13.62581 1.72084,-1.0771 39.4935,-0.90976 40.16574,0.17794 0.31204,0.50489 1.2481,5.78012 2.08013,11.72273 1.99271,14.23253 2.17336,14.97083 3.66407,14.97479 3.13002,0.008 12.69787,2.81681 17.08411,5.0148 6.09669,3.0551 6.30741,2.97052 17.67893,-7.09649 7.02845,-6.22218 9.88189,-8.17827 11,-7.54077 0.83036,0.47343 8.63183,7.78696 17.3366,16.25229 l 15.82687,15.3915 -8.5006,10.64573 -8.5006,10.64573 3.42373,7.03501 c 1.88306,3.86926 3.42374,7.49547 3.42374,8.05824 0,5.0065 2.63166,6.53331 14.27882,8.28415 6.2761,0.94345 13.07465,2.17469 15.10789,2.73609 l 3.6968,1.02073 -0.53718,9.69147 c -0.29545,5.33031 -0.80955,15.42897 -1.14245,22.44147 -0.3329,7.0125 -0.89745,12.78359 -1.25457,12.82465 -0.35712,0.0411 -6.45121,0.60356 -13.54242,1.25 l -12.89311,1.17535 -1.26283,4 c -0.69456,2.2 -2.24312,6.475 -3.44125,9.5 -1.19813,3.025 -2.39287,6.19164 -2.65498,7.03698 -0.42503,1.37076 7.92438,12.97949 14.35077,19.9528 3.16307,3.43226 4.00122,2.26931 -13.45549,18.66966 -8.6625,8.1383 -15.62635,15.17768 -15.47522,15.64307 0.15112,0.46538 -0.15528,0.58036 -0.68091,0.25551 -0.52562,-0.32486 -1.23833,-0.1333 -1.58379,0.42567 -1.16066,1.87798 -3.12603,1.04141 -7.59693,-3.23369 -2.44457,-2.3375 -6.51198,-5.94001 -9.0387,-8.00558 l -4.59405,-3.75557 -10.467,4.99997 -10.467,4.99998 -1.23724,11.2556 c -0.68048,6.19058 -1.46737,12.0545 -1.74863,13.03094 -0.52125,1.80955 -42.36244,2.61476 -45.09386,0.86781 z m 33.9619,-78.22015 c 38.22977,-12.87868 42.93406,-64.38692 7.75686,-84.93151 -36.69364,-21.43024 -78.85358,8.93462 -70.98015,51.12202 5.00363,26.81045 35.53443,43.13719 63.22329,33.80949 z M 489,741.93817 c -1.53525,-0.96641 -11.32925,-5.51024 -28.7051,-13.31748 -5.38719,-2.42055 -18.1199,-8.21137 -28.2949,-12.8685 -53.78278,-24.61654 -67.51724,-30.87085 -101,-45.99275 -20.075,-9.06652 -47.525,-21.3271 -61,-27.24573 -29.2549,-12.84965 -35,-15.58077 -35,-16.63839 0,-0.93363 9.42885,-5.54903 27,-13.21642 6.875,-2.99999 16.16655,-7.07501 20.64789,-9.05561 l 8.14789,-3.60108 7.35211,3.10842 c 4.04366,1.70964 9.15211,3.91253 11.35211,4.89531 2.2,0.98279 6.925,2.99997 10.5,4.48263 3.575,1.48266 11.9,5.09027 18.5,8.01691 58.43604,25.91232 150.2747,64.90916 152.5,64.75507 1.19578,-0.0828 19.32403,-7.6019 29.5,-12.23579 22.45096,-10.22362 23.83247,-10.53587 22.962,-5.18993 -0.32823,2.01584 -0.77464,4.79017 -0.99201,6.16517 -0.21737,1.375 -0.69508,7.9 -1.06157,14.5 -0.3665,6.6 -0.76301,13.125 -0.88115,14.5 -0.22031,2.56403 1.57981,6.06138 4.78421,9.29498 4.04361,4.08045 4.08027,4.0555 -29.71425,20.22519 -21.96653,10.51034 -23.81955,11.16649 -26.59723,9.418 z m -3,-65.83796 c -2.475,-0.99343 -12.825,-5.52036 -23,-10.05984 -10.175,-4.53949 -24.575,-10.86178 -32,-14.04953 -7.425,-3.18776 -16.875,-7.35977 -21,-9.27113 -6.80214,-3.15184 -24.20524,-10.7676 -44,-19.25481 -4.125,-1.76864 -23.7,-10.19662 -43.5,-18.72886 -19.8,-8.53224 -43.2,-18.51808 -52,-22.19075 -20.47681,-8.54599 -34.8896,-14.72092 -35.40372,-15.16818 -0.54939,-0.47794 8.46991,-4.43274 26.40372,-11.57756 8.25,-3.28679 19.17083,-7.80423 24.26851,-10.03874 l 9.26852,-4.06276 26.23148,10.59112 c 31.77089,12.82769 70.47262,28.79443 113.23149,46.71464 44.6285,18.70377 53.62869,22.2129 55.49127,21.6358 0.8298,-0.2571 6.23373,-2.56767 12.00873,-5.1346 5.775,-2.56692 16.8,-7.30487 24.5,-10.52877 7.7,-3.2239 19.4,-8.15622 26,-10.96071 6.6,-2.80449 19.65,-8.28034 29,-12.16855 9.35,-3.8882 17.45,-7.41488 18,-7.83706 0.55,-0.42218 8.425,-3.7095 17.5,-7.30515 9.075,-3.59565 27.42916,-11.04873 40.78703,-16.5624 l 24.28703,-10.02487 6.71297,2.51179 c 5.81149,2.17448 45.61193,17.80429 51.96297,20.40609 3.70181,1.5165 2.88562,2.10615 -15.54425,11.22988 -21.09024,10.44075 -18.77399,10.2232 -20.17868,1.89526 -2.47246,-14.65841 -4.35636,-15.48537 -33.89787,-14.87977 -27.85841,0.5711 -26.25981,-0.19832 -28.11353,13.53137 -1.77711,13.16232 -1.64035,12.81797 -5.75655,14.4947 -2.06752,0.84221 -5.40001,2.22927 -7.40554,3.08237 -3.49564,1.48696 -3.7851,1.45158 -7,-0.85547 C 618.27449,588.2477 605.48274,581 604.26222,581 c -1.51066,0 -21.59463,17.44611 -32.03473,27.82724 -10.61421,10.55427 -10.45481,8.12295 -1.47455,22.49057 6.18893,9.90174 6.31888,9.36399 -3.25294,13.46105 -3.85,1.64792 -12.175,5.33225 -18.5,8.18738 -6.325,2.85514 -13.075,5.77194 -15,6.48179 -1.925,0.70984 -11.98862,5.17443 -22.3636,9.9213 -20.9944,9.60558 -19.47098,9.2056 -25.6364,6.73088 z m 0.5,-66.543 c -2.2,-0.71995 -11.65,-4.55667 -21,-8.52604 -18.07983,-7.67545 -68.01351,-28.40949 -85.5,-35.5023 -5.775,-2.34243 -17.25,-7.07678 -25.5,-10.52077 -26.27858,-10.97009 -35.55525,-14.74894 -55,-22.40425 -59.53736,-23.4396 -67.94522,-27.31296 -62.75,-28.90781 0.9625,-0.29548 5.125,-1.95351 9.25,-3.68453 4.125,-1.73102 18.75,-7.3495 32.5,-12.48552 13.75,-5.13602 32.425,-12.12987 41.5,-15.54189 9.075,-3.41202 21.9,-8.20399 28.5,-10.6488 14.07357,-5.21323 28.85998,-10.71106 43.5,-16.17401 5.775,-2.15495 17.25,-6.41889 25.5,-9.47543 8.25,-3.05654 22.425,-8.3258 31.5,-11.70946 36.93837,-13.77266 33.63461,-13.55082 40.37706,-2.71114 13.62275,21.90096 14.58314,27.52227 5.12294,29.98513 -58.89577,15.3329 -67.13748,22.61411 -40.2563,35.56479 19.57596,9.4312 22.30428,14.31601 11.48791,20.56798 -8.2392,4.76234 -20.40735,6.9453 -53.73161,9.6394 -26.70517,2.15898 -48.29646,6.26533 -60.82061,11.56721 l -3.67939,1.55761 3.5,1.321 c 1.925,0.72655 10.025,4.10943 18,7.51751 7.975,3.40807 17.425,7.28311 21,8.61118 l 6.5,2.41469 1.94698,-2.75588 c 9.79134,-13.85929 23.82522,-19.75728 55.21603,-23.20549 55.86748,-6.13693 61.63413,-17.07266 20.03648,-37.99666 -24.42296,-12.28497 -21.72079,-16.5382 17.17186,-27.02854 18.40207,-4.9635 16.69592,-5.4553 23.06527,6.64847 C 526.03482,488.66405 538.23094,504 544.41614,504 c 6.128,0 17.70813,-17.12143 34.94949,-51.67341 5.76378,-11.55072 4.75103,-11.17726 16.86583,-6.21944 5.64769,2.31124 41.24757,16.62887 79.11083,31.81696 37.86326,15.18809 68.85475,28.05597 68.86998,28.5953 0.0152,0.53932 -3.0638,2.21003 -6.84229,3.71268 -18.39955,7.31724 -111.27042,44.66742 -121.36998,48.81176 -21.03272,8.63076 -38.37429,15.71873 -50,20.43635 -6.325,2.56664 -13.975,5.74069 -17,7.05345 -3.025,1.31276 -15.175,6.48524 -27,11.49439 -11.825,5.00916 -23.4076,9.97706 -25.7391,11.03976 -4.87949,2.22409 -4.51583,2.20586 -9.7609,0.48941 z M 202.84248,552.75 C 189.37756,537.17067 181.90432,526.14935 175.21109,512 135.66088,428.3917 165.41291,326.10192 246.70898,266.1847 l 7.20897,-5.31319 -2.55807,-5.68576 c -3.69843,-8.22038 -5.83222,-14.0534 -5.31232,-14.52196 0.24884,-0.22427 11.47744,0.87265 24.95244,2.43761 13.475,1.56495 27.5375,3.14697 31.25,3.51559 8.59332,0.85323 8.59113,0.88491 -1.01863,14.70816 -4.27274,6.14617 -9.88025,14.32485 -12.46111,18.17485 -5.79161,8.6396 -12.82594,18.86608 -13.33922,19.3925 -0.89615,0.91908 -3.61217,-2.55191 -7.40635,-9.46509 l -4.06046,-7.39838 -5.20986,3.73548 c -52.03182,37.30705 -84.4407,115.19633 -76.25471,183.26535 1.40262,11.66317 2.32526,16.58775 6.1771,32.97014 2.37194,10.0882 11.03924,33.45786 16.44015,44.32763 7.23236,14.55572 6.51233,16.58891 -2.27443,6.42237 z M 814,554.87991 c 0,-4.29512 -9.20664,-69.35564 -10.72185,-75.76804 -0.67649,-2.86293 2.36221,-2.57665 14.08726,1.32715 l 6.86542,2.28581 -0.50685,-22.61242 C 822.06881,386.26985 791.88432,316.13001 739.5427,264.5 c -6.10809,-6.02504 -8.08172,-7.76407 -16.81587,-14.81695 -4.01263,-3.24023 -7.35414,-8.96642 -3.47683,-5.95809 0.6875,0.53342 3.725,1.74936 6.75,2.70208 62.40256,19.65374 111.67254,93.07673 123.52085,184.07296 1.51966,11.6712 2.27347,56.26645 1.00688,59.56714 -0.55765,1.45321 8.94179,5.86654 13.3406,6.19789 1.09621,0.0826 1.82325,0.42499 1.61563,0.76092 -0.20761,0.33593 1.17356,1.17164 3.06928,1.85714 5.19603,1.87891 5.41919,1.59117 -24.30324,31.33782 -28.59664,28.61994 -30.25,29.96771 -30.25,24.659 z M 537.88697,487.72509 c -19.20202,-25.91231 -42.71602,-70.30178 -49.32959,-93.12383 -16.05119,-55.38932 49.19694,-95.87088 91.53485,-56.79047 29.73594,27.44804 23.1012,64.76218 -24.66002,138.68921 -3.55333,5.5 -7.46671,11.68403 -8.6964,13.7423 -2.94356,4.92693 -3.43633,4.78676 -8.84884,-2.51721 z M 552.5,396.49528 c 12.02187,-5.26715 17.21569,-22.22972 10,-32.65914 -9.38424,-13.5638 -31.31106,-13.2538 -39.92142,0.56441 -12.04435,19.32921 8.57567,41.44694 29.92142,32.09473 z M 627.62911,408.75 c 22.67537,-23.82148 39.62419,-60.60884 42.85944,-93.02632 l 0.67628,-6.77633 -29.43113,0.0818 -29.43113,0.0817 -0.60138,14.06134 c -0.72792,17.01995 0.36623,15.96054 -11.43067,11.06773 l -9.77052,-4.05237 0.23685,-10.58193 0.23686,-10.58194 -80.6225,4.2e-4 -80.62251,4.1e-4 0.67807,10.73775 c 0.37294,5.90576 1.60271,16.05651 2.73283,22.55722 2.36337,13.59462 2.37675,13.55068 -3.33741,10.9557 -2.3662,-1.07457 -6.77719,-3.01459 -9.80219,-4.31116 -7.97726,-3.41918 -9.49012,-8.18701 -10.30102,-32.46402 l -0.23381,-7 -30.68718,-0.26439 -30.68717,-0.26438 0.53157,5.26438 c 2.80532,27.78246 13.67324,56.14716 31.66715,82.64964 10.09574,14.86959 8.87864,15.19038 -9.39215,2.47549 C 323.46432,366.35143 312.38737,284.14221 346.51007,218.3667 409.19914,97.526171 589.81256,90.510085 664.86311,206 c 39.48649,60.76293 36.54435,144.08041 -6.58399,186.44983 -12.89574,12.66882 -41.85175,28.06809 -30.65001,16.30017 z M 409.42431,275.90192 c 0.38921,-6.65394 1.80295,-18.6679 3.14167,-26.69769 C 413.90469,241.17445 415,234.51788 415,234.41186 c 0,-0.10602 -3.7125,-1.19061 -8.25,-2.41019 -9.74606,-2.61955 -27.86925,-9.34036 -32.55716,-12.07352 -4.84681,-2.8258 -4.94484,-2.75101 -9.68214,7.38654 -8.42479,18.02857 -14.17881,38.37207 -15.82092,55.93531 l -0.44411,4.75 h 30.2355 30.2355 z m 89.98797,-3.15409 c -0.0482,-8.38631 -0.16075,-17.83533 -0.25,-20.99783 L 499,246 l -7.25,-8.4e-4 c -12.97007,-10e-4 -49.33371,-4.36724 -55.23358,-6.63123 -2.02868,-0.77848 -6.49947,30.03043 -6.513,44.88207 L 430,288 l 34.75,-0.002 34.75,-0.002 z M 591,284.67368 c 0,-9.87217 -4.85849,-43.86551 -6.50477,-45.51178 -0.25246,-0.25247 -3.95467,0.27603 -8.22713,1.17443 -14.25973,2.99852 -34.46749,5.4121 -48.5181,5.79494 L 521,246.31519 V 267.1576 288 h 35 35 z M 670.32788,282.25 c -1.67939,-18.30234 -13.87163,-55.8927 -20.74874,-63.97129 -0.10361,-0.1217 -4.4388,1.62471 -9.63376,3.88093 -9.395,4.08033 -32.2016,11.84036 -34.79859,11.84036 -0.90152,0 -1.11961,0.59062 -0.64621,1.75 1.81088,4.43495 5.56957,26.06789 6.68933,38.5 l 1.23845,13.75 h 29.21357 29.21356 z m -171.04892,-84 c -0.149,-14.7125 -0.27272,-32.68824 -0.27494,-39.9461 L 499,145.1078 l -5.25,1.55641 c -18.61084,5.51735 -41.36853,33.40271 -50.59413,61.99379 -1.09287,3.38691 -2.47624,7.0721 -3.07416,8.18932 -1.40195,2.61957 -1.35918,2.63863 10.3856,4.62976 13.52404,2.29277 23.85893,3.22469 37.55763,3.38666 L 499.54987,225 Z M 560.5,222.4688 c 6.6,-0.8618 13.63382,-1.99772 15.6307,-2.52428 l 3.63071,-0.95736 -3.89405,-10.74358 C 563.83244,175.03957 544.70779,151.45472 525.75,146.438 L 521,145.18102 v 40.06504 40.06504 l 13.75,-0.6377 c 7.5625,-0.35073 19.15,-1.34281 25.75,-2.2046 z M 421.05999,210.25 c 3.6355,-13.08316 13.02071,-32.88546 21.45978,-45.27903 7.20417,-10.58 6.9298,-11.60319 -2.03854,-7.60221 -16.79118,7.49093 -34.65083,19.82326 -48.85722,33.73657 l -9.87599,9.67224 6.87599,3.28809 c 6.08617,2.91039 27.0302,10.45289 29.99603,10.80236 0.61602,0.0726 1.714,-2.00552 2.43995,-4.61802 z m 196.31384,-1.24024 c 20.87897,-6.84692 20.28248,-6.16599 12.59775,-14.38099 -14.13965,-15.11533 -34.2681,-29.3954 -54.12544,-38.39915 l -6.48746,-2.94156 6.41266,9.60597 c 7.12495,10.67297 16.65199,29.62336 20.66545,41.10597 1.44179,4.125 2.81921,8.0625 3.06094,8.75 0.64554,1.836 1.27095,1.70515 17.8761,-3.74024 z"
       id="path4" />
  </g>
</svg>
